<svg width="42" height="63" viewBox="0 0 42 63" fill="none" xmlns="http://www.w3.org/2000/svg">
<path d="M32.7369 3.5C59.027 21.6817 21.0028 62.5 21.0028 62.5C21.0028 62.5 -17.0262 21.6816 9.26015 3.5C11.342 2.33334 14 5.50913e-07 21.0028 1.36719e-06C27.5 2.12452e-06 30.6579 2.33333 32.7369 3.5Z" fill="white"/>
<path d="M21.0022 54C21.0022 54 49.9729 22.8594 29.9424 8.98849C29.9424 8.98849 41.9178 17.7295 21.0022 42.4415C0.0829911 17.7295 12.0554 8.98848 12.0554 8.98848C-7.97236 22.8594 21.0022 54 21.0022 54Z" fill="#162A75"/>
<path d="M29.8103 16.5135C30.0171 20.6106 28.1217 26.5599 21.2143 35.0039C14.3085 26.5618 12.4141 20.612 12.6206 16.5135C12.8854 20.9996 16.6324 24.5545 21.2157 24.5545C25.799 24.5545 29.5462 20.9986 29.8103 16.5135Z" fill="#162A75"/>
<path d="M21.2156 23.1643C25.9553 23.1643 29.7976 19.3213 29.7976 14.582C29.7976 9.84273 25.9551 5.99996 21.2156 5.99996C16.476 5.99996 12.6333 9.84249 12.6333 14.582C12.6333 19.3215 16.4758 23.1643 21.2156 23.1643ZM21.2156 16.0121C23.5565 16.0121 25.616 17.2177 26.8075 19.0405C25.4972 20.6827 23.479 21.7338 21.2156 21.7338C18.9521 21.7338 16.9342 20.6827 15.6236 19.0405C16.8151 17.2177 18.8746 16.0121 21.2156 16.0121Z" fill="#162A75"/>
</svg>
