<svg width="42" height="63" viewBox="0 0 42 63" fill="none" xmlns="http://www.w3.org/2000/svg">
<path d="M32.7369 3.5C59.027 21.6816 21.0028 62.5 21.0028 62.5C21.0028 62.5 -17.0262 21.6816 9.26015 3.5C11.342 2.33334 14 1.36686e-06 21.0028 1.97907e-06C27.5 2.54707e-06 30.6579 2.33333 32.7369 3.5Z" fill="white"/>
<path d="M21.0022 54C21.0022 54 49.9729 22.8594 29.9424 8.98849C29.9424 8.98849 41.9178 17.7295 21.0022 42.4415C0.0829908 17.7295 12.0554 8.98848 12.0554 8.98848C-7.97236 22.8594 21.0022 54 21.0022 54Z" fill="#00AEEF"/>
<path d="M29.8112 16.5135C30.018 20.6106 28.1226 26.5599 21.2153 35.0039C14.3095 26.5618 12.4151 20.612 12.6216 16.5135C12.8864 20.9996 16.6333 24.5545 21.2167 24.5545C25.8 24.5545 29.5471 20.9986 29.8112 16.5135Z" fill="#00AEEF"/>
<path d="M21.2148 23.1643C25.9546 23.1643 29.7969 19.3213 29.7969 14.582C29.7969 9.84273 25.9543 5.99996 21.2148 5.99996C16.4753 5.99996 12.6325 9.8425 12.6325 14.582C12.6325 19.3215 16.4751 23.1643 21.2148 23.1643ZM21.2148 16.0121C23.5558 16.0121 25.6153 17.2177 26.8068 19.0405C25.4965 20.6827 23.4783 21.7338 21.2148 21.7338C18.9514 21.7338 16.9334 20.6827 15.6229 19.0405C16.8144 17.2177 18.8738 16.0121 21.2148 16.0121Z" fill="#00AEEF"/>
</svg>
