<svg width="47" height="46" viewBox="0 0 47 46" fill="none" xmlns="http://www.w3.org/2000/svg">
<path d="M21 24L27 18H31" stroke="#0066B3" stroke-width="2" stroke-miterlimit="10" stroke-linejoin="round"/>
<path d="M25 29L31 23V18L39 10H45" stroke="#0066B3" stroke-width="2" stroke-miterlimit="10" stroke-linejoin="round"/>
<path d="M11.9991 34L5.99914 40C4.76114 41.238 5.25415 42.601 6.49215 43.839C7.73015 45.077 8.76114 45.238 9.99914 44L15.9991 38" stroke="#0066B3" stroke-width="2" stroke-miterlimit="10" stroke-linejoin="round"/>
<path d="M46 8L41 1" stroke="#0066B3" stroke-width="2" stroke-miterlimit="10" stroke-linejoin="round"/>
<path d="M39 19L37 21" stroke="#0066B3" stroke-width="2" stroke-miterlimit="10" stroke-linejoin="round"/>
<path d="M46 12L41 17" stroke="#0066B3" stroke-width="2" stroke-miterlimit="10" stroke-linejoin="round"/>
<path d="M43.667 23L43 25" stroke="#0066B3" stroke-width="2" stroke-miterlimit="10" stroke-linejoin="round"/>
<path d="M46.001 16L44.668 20" stroke="#0066B3" stroke-width="2" stroke-miterlimit="10" stroke-linejoin="round"/>
<path d="M42 7L38 5" stroke="#0066B3" stroke-width="2" stroke-miterlimit="10" stroke-linejoin="round"/>
<path d="M34.9991 3.5L31.998 2" stroke="#0066B3" stroke-width="2" stroke-miterlimit="10" stroke-linejoin="round"/>
<path d="M20 23L25.292 29.318C26.245 30.271 26 32.252 25.084 33.113C22.344 35.691 17.516 39.687 16.22 38.39C14.453 36.624 10.149 32.319 10.149 32.319C8.66199 30.834 9 29.125 9 28C8.469 27.469 6 25 6 25L14 17C14 17 14.49 17.49 15 18C15.51 18.51 16.241 19 18 19C20.242 19 20.823 18.823 22 20" stroke="#0066B3" stroke-width="2" stroke-miterlimit="10" stroke-linejoin="round"/>
<path d="M14 17L15 16L11 12L1 22L5 26L6 25" stroke="#0066B3" stroke-width="2" stroke-miterlimit="10" stroke-linejoin="round"/>
</svg>
