<svg width="48" height="47" viewBox="0 0 48 47" fill="none" xmlns="http://www.w3.org/2000/svg">
<path d="M19 16V6H47V37H19V27" stroke="#0066B3" stroke-width="2" stroke-miterlimit="10"/>
<path d="M6 11V11.715C6 14.081 7.71 16 10 16C12.29 16 14 14.081 14 11.715V11" stroke="#0066B3" stroke-width="2" stroke-miterlimit="10"/>
<path d="M11.9961 2.36798C13.8011 3.08198 15.0001 4.78398 15.0001 6.99998V7.99998" stroke="#0066B3" stroke-width="2" stroke-miterlimit="10"/>
<path d="M5 8.00002V7.00002C5 4.78502 6.19701 3.08502 8.00101 2.36902" stroke="#0066B3" stroke-width="2" stroke-miterlimit="10"/>
<path d="M15 47V23H21C24.018 23 25 21.219 25 19C23.437 19 7.84 19 6 19C2.417 19 1 20.512 1 25V32C1 34.145 1.855 36 4 36H5" stroke="#0066B3" stroke-width="2" stroke-miterlimit="10"/>
<path d="M10 33V47" stroke="#0066B3" stroke-width="2" stroke-miterlimit="10"/>
<path d="M5 25V47" stroke="#0066B3" stroke-width="2" stroke-miterlimit="10"/>
<path d="M44 10H41V12.343C40 12.556 39.479 12.863 38.792 13.256L36.429 10.893L32.894 14.429L35.256 16.791C34.863 17.479 34.557 18 34.344 19H31V24H34C34.213 24.781 34.863 25.521 35.256 26.208L32.894 28.571L36.429 32.106L38.792 29.744C39.479 30.137 40 30.443 41 30.656V33H44" stroke="#0066B3" stroke-width="2" stroke-miterlimit="10" stroke-linejoin="round"/>
<path d="M44 24.944C42.067 24.944 40.5 23.377 40.5 21.444C40.5 19.51 42.066 17.943 44 17.943" stroke="#0066B3" stroke-width="2" stroke-miterlimit="10" stroke-linejoin="round"/>
<path d="M10 0V5" stroke="#0066B3" stroke-width="2" stroke-miterlimit="10"/>
<path d="M3 9H17" stroke="#0066B3" stroke-width="2" stroke-miterlimit="10"/>
</svg>
