<?xml version="1.0" standalone="no"?>
<!DOCTYPE svg PUBLIC "-//W3C//DTD SVG 20010904//EN"
 "http://www.w3.org/TR/2001/REC-SVG-20010904/DTD/svg10.dtd">
<svg version="1.0" xmlns="http://www.w3.org/2000/svg"
 width="1024.000000pt" height="1024.000000pt" viewBox="0 0 1024.000000 1024.000000"
 preserveAspectRatio="xMidYMid meet">
<metadata>
Created by potrace 1.14, written by Peter Selinger 2001-2017
</metadata>
<g transform="translate(0.000000,1024.000000) scale(0.100000,-0.100000)"
fill="#000000" stroke="none">
<path d="M5086 10202 c-19 -20 -44 -48 -56 -62 -85 -99 -107 -126 -125 -146
-11 -12 -27 -31 -35 -41 -53 -66 -167 -201 -182 -216 -10 -10 -18 -21 -18 -25
0 -4 -12 -20 -27 -37 -15 -16 -72 -85 -126 -154 -54 -70 -107 -136 -118 -149
-10 -12 -19 -27 -19 -32 0 -6 -3 -10 -7 -10 -5 -1 -26 -26 -48 -56 -22 -31
-47 -64 -55 -73 -8 -9 -33 -41 -55 -71 -22 -30 -43 -56 -47 -58 -5 -2 -8 -10
-8 -17 0 -7 -4 -15 -8 -17 -5 -1 -43 -50 -85 -108 -42 -58 -84 -114 -93 -125
-9 -11 -21 -30 -27 -42 -5 -13 -14 -23 -19 -23 -4 0 -8 -7 -8 -15 0 -8 -3 -15
-7 -15 -5 0 -28 -30 -53 -68 -24 -37 -47 -69 -50 -72 -3 -3 -28 -39 -55 -80
-28 -41 -52 -77 -56 -80 -8 -8 -274 -412 -289 -439 -7 -14 -17 -30 -22 -35
-16 -19 -168 -267 -264 -431 -52 -88 -99 -167 -104 -175 -5 -8 -21 -37 -36
-65 -14 -27 -33 -58 -42 -67 -8 -10 -12 -18 -8 -18 4 0 -1 -12 -12 -27 -21
-31 -70 -121 -162 -298 -35 -66 -67 -124 -71 -130 -5 -5 -9 -17 -9 -26 0 -10
-3 -19 -7 -21 -12 -5 -153 -297 -247 -513 -32 -71 -61 -138 -67 -148 -5 -9
-20 -47 -34 -84 -14 -36 -30 -72 -35 -78 -5 -6 -11 -20 -13 -31 -4 -19 -8 -29
-34 -94 -50 -120 -200 -549 -209 -596 -2 -12 -48 -169 -65 -221 -5 -18 -12
-40 -14 -50 -1 -10 -12 -54 -24 -98 -11 -44 -23 -95 -26 -114 -3 -19 -8 -37
-10 -41 -2 -3 -6 -17 -8 -31 -3 -13 -16 -82 -30 -154 -14 -71 -31 -166 -37
-210 -6 -44 -13 -91 -16 -105 -2 -14 -7 -50 -10 -80 -2 -30 -7 -66 -9 -80 -12
-66 -20 -248 -20 -475 0 -258 10 -422 31 -535 2 -14 7 -47 10 -75 3 -27 7 -53
9 -56 2 -3 7 -28 11 -55 3 -27 8 -52 11 -57 4 -7 12 -41 17 -82 2 -11 6 -27 9
-35 5 -15 18 -62 23 -90 2 -8 21 -69 44 -135 22 -66 42 -127 44 -135 13 -42
125 -297 145 -330 6 -8 20 -35 32 -60 13 -25 25 -47 28 -50 3 -3 17 -25 30
-50 25 -45 177 -276 196 -296 5 -6 21 -26 35 -45 14 -18 39 -49 56 -69 17 -19
39 -46 50 -60 37 -48 341 -346 416 -407 140 -116 219 -174 208 -154 -5 11 -16
24 -23 28 -10 6 -119 130 -157 179 -73 95 -220 350 -220 384 0 5 -5 10 -10 10
-6 0 -9 3 -8 7 1 5 -3 18 -10 30 -7 13 -10 23 -6 23 3 0 1 6 -5 13 -19 24
-102 275 -126 387 -34 153 -46 223 -60 349 -23 201 -23 594 -1 731 3 14 7 54
11 90 3 36 8 74 10 85 3 11 7 38 10 60 3 22 13 78 22 125 8 47 17 94 19 105
12 81 137 547 161 605 3 8 7 18 8 23 2 4 3 8 5 10 1 1 3 9 5 17 2 8 26 78 55
155 28 77 52 146 52 153 1 6 5 12 10 12 4 0 8 11 8 24 0 14 4 27 9 30 4 3 19
34 32 68 12 35 38 97 57 138 19 41 40 89 47 105 8 17 39 84 70 150 32 66 63
134 71 150 8 17 18 37 23 45 4 8 15 29 23 45 50 98 158 301 194 363 24 39 40
72 36 72 -4 0 -2 4 3 8 6 4 42 60 80 125 84 143 84 142 114 192 38 63 285 449
294 460 11 14 210 303 222 323 6 9 16 23 23 30 7 8 21 27 30 41 21 32 213 294
221 301 3 3 22 28 40 55 19 28 38 52 41 55 3 3 50 64 105 135 55 72 104 135
110 142 5 6 37 46 70 88 83 105 215 267 267 327 21 24 12 32 128 -112 102
-127 110 -136 134 -163 10 -12 30 -38 45 -57 14 -19 28 -37 31 -40 3 -3 21
-25 40 -50 19 -25 37 -47 40 -50 3 -3 24 -30 46 -60 44 -58 180 -238 213 -280
15 -20 173 -236 245 -335 118 -163 398 -584 493 -740 6 -11 34 -56 61 -100 27
-44 59 -96 69 -115 11 -19 35 -60 53 -90 60 -100 95 -164 161 -286 29 -55 63
-117 75 -139 66 -122 226 -454 281 -585 8 -19 19 -42 23 -51 14 -27 142 -353
145 -370 2 -9 8 -25 13 -35 17 -32 131 -392 148 -465 2 -11 6 -27 9 -36 8 -28
66 -266 70 -288 2 -11 5 -29 8 -40 5 -21 19 -99 22 -125 2 -8 6 -37 9 -65 4
-27 9 -61 12 -75 2 -14 7 -50 10 -80 3 -30 7 -66 10 -80 7 -43 17 -260 16
-385 0 -180 -12 -339 -38 -497 -2 -16 -6 -40 -8 -55 -16 -99 -74 -322 -89
-340 -5 -7 -7 -13 -3 -13 3 0 -1 -17 -9 -38 -9 -20 -16 -39 -17 -42 -1 -10
-11 -36 -29 -77 -11 -23 -19 -45 -19 -48 0 -13 -109 -225 -144 -279 -20 -31
-36 -59 -36 -62 0 -3 -6 -11 -12 -18 -7 -8 -31 -39 -53 -71 -49 -70 -98 -128
-147 -173 -64 -60 -42 -54 45 10 45 34 87 67 93 73 6 5 37 33 69 60 217 187
407 392 548 590 31 44 61 85 66 92 28 32 134 215 183 313 18 36 36 67 41 68 4
2 7 8 7 13 0 6 12 36 26 67 39 85 98 238 121 312 29 92 69 231 78 270 1 6 16
79 21 105 9 46 14 71 19 95 3 14 7 41 9 60 3 19 9 67 15 105 26 185 36 630 18
840 -13 144 -24 247 -32 300 -3 17 -7 44 -10 60 -2 17 -7 48 -10 70 -4 22 -8
51 -11 65 -2 14 -7 41 -10 60 -3 19 -10 53 -15 75 -6 22 -10 47 -11 55 -2 70
-178 711 -228 835 -5 11 -10 29 -13 40 -6 23 -73 210 -111 310 -31 80 -38 96
-60 147 -9 21 -28 67 -41 103 -14 36 -29 73 -34 82 -5 10 -16 34 -24 53 -102
243 -470 983 -536 1080 -6 8 -23 38 -37 65 -41 78 -58 110 -65 115 -3 3 -14
21 -24 40 -23 46 -250 423 -287 477 -15 23 -28 46 -28 51 0 6 -4 12 -8 14 -4
2 -35 46 -67 98 -33 52 -64 100 -68 105 -5 6 -18 25 -30 44 -43 67 -63 98
-122 186 -33 50 -62 92 -65 95 -3 3 -30 41 -60 85 -99 146 -253 360 -262 363
-4 2 -8 8 -8 12 0 7 -146 209 -203 280 -7 8 -50 65 -97 125 -104 135 -76 100
-232 295 -159 198 -143 179 -171 211 -13 15 -45 54 -72 88 -26 33 -51 61 -56
61 -4 0 -10 8 -14 18 -3 9 -27 40 -53 68 -26 28 -60 66 -76 85 -16 19 -44 51
-62 71 l-34 38 -34 -38z"/>
<path d="M5051 6093 c-84 -103 -87 -106 -125 -158 -17 -22 -33 -42 -36 -45 -5
-4 -68 -87 -102 -135 -4 -5 -20 -26 -35 -45 -70 -87 -93 -120 -93 -129 0 -5
-3 -11 -8 -13 -4 -1 -25 -28 -47 -58 -22 -30 -42 -57 -45 -60 -6 -6 -50 -69
-131 -190 -35 -52 -68 -98 -74 -102 -5 -4 -7 -8 -2 -8 4 0 -1 -8 -10 -19 -10
-10 -43 -58 -74 -107 -94 -150 -185 -297 -203 -329 -32 -57 -68 -120 -84 -145
-55 -85 -338 -654 -346 -695 -2 -5 -10 -28 -20 -50 -10 -22 -26 -62 -37 -90
-11 -27 -24 -59 -29 -70 -29 -63 -136 -410 -164 -530 -32 -135 -65 -318 -72
-395 -3 -30 -7 -61 -10 -68 -2 -8 -6 -93 -9 -190 -4 -170 4 -179 20 -23 3 30
10 60 15 66 5 7 8 14 5 17 -3 2 0 20 6 39 6 19 12 43 14 54 8 49 61 190 114
300 49 101 139 257 161 275 3 3 17 21 30 40 60 86 233 262 330 336 36 27 67
52 70 55 14 15 194 120 260 151 117 55 223 97 260 103 3 0 21 6 40 13 19 6 46
13 60 16 14 2 57 11 95 19 175 38 443 43 640 13 106 -16 220 -44 258 -63 15
-7 27 -11 27 -9 0 20 356 -146 411 -191 14 -12 29 -20 32 -16 4 3 9 -2 13 -11
3 -9 11 -16 18 -16 6 0 25 -11 41 -25 17 -14 48 -39 70 -56 139 -107 303 -294
411 -469 70 -112 166 -326 190 -420 21 -84 27 -107 32 -120 3 -8 6 -19 7 -25
1 -5 5 -30 10 -55 9 -48 12 -77 15 -125 1 -22 3 -25 8 -13 11 26 4 208 -13
348 -2 19 -6 60 -9 90 -3 30 -8 66 -11 80 -4 14 -8 39 -11 55 -14 80 -29 152
-55 250 -11 44 -21 87 -23 95 -1 9 -5 20 -8 26 -4 6 -9 21 -11 35 -3 13 -17
60 -32 104 -15 44 -28 87 -30 95 -8 33 -116 310 -157 400 -11 25 -31 70 -45
100 -53 117 -168 345 -178 352 -5 4 -6 8 -1 8 5 0 3 6 -3 13 -6 8 -25 40 -42
73 -48 91 -201 349 -268 454 -34 52 -64 102 -68 110 -4 8 -11 20 -15 25 -25
30 -88 127 -88 135 0 6 -4 10 -10 10 -5 0 -10 4 -10 9 0 6 -25 45 -55 88 -139
196 -266 371 -289 398 -14 17 -26 33 -26 37 0 4 -6 13 -13 20 -6 7 -39 49 -72
93 -56 74 -85 111 -110 139 -5 6 -32 40 -60 76 -27 36 -56 71 -63 79 -7 8 -20
24 -29 37 -8 13 -19 24 -23 24 -4 0 -40 -39 -79 -87z"/>
<path d="M5077 3664 c-1 -1 -45 -5 -97 -9 -52 -4 -104 -9 -115 -12 -11 -2 -36
-6 -55 -9 -130 -18 -321 -80 -480 -156 -90 -43 -280 -159 -316 -192 -7 -6 -31
-27 -55 -46 -103 -82 -255 -247 -334 -361 -49 -72 -114 -179 -108 -179 3 0 -1
-8 -9 -17 -8 -10 -29 -52 -47 -93 -18 -41 -37 -84 -41 -95 -19 -43 -52 -151
-75 -248 -34 -143 -46 -244 -48 -402 0 -87 9 -241 18 -285 2 -8 6 -33 10 -55
3 -22 11 -58 17 -80 6 -22 11 -44 13 -50 24 -105 80 -257 139 -373 32 -63 130
-224 154 -254 7 -7 34 -41 61 -75 88 -108 293 -303 319 -303 6 0 12 -4 14 -8
5 -13 147 -107 208 -137 30 -15 57 -31 58 -36 2 -5 10 -9 18 -9 8 0 32 -9 53
-20 118 -60 340 -121 536 -148 68 -10 405 -8 455 2 14 3 50 9 80 15 30 5 84
17 120 26 36 9 72 18 80 20 96 20 386 155 475 222 6 5 33 24 60 43 117 81 319
269 365 339 8 13 21 29 27 36 7 7 37 51 68 97 30 45 58 88 62 93 13 17 100
196 121 250 165 418 170 893 16 1307 -14 37 -26 71 -26 75 -2 17 -121 240
-144 270 -13 17 -24 34 -24 37 0 6 -67 99 -100 140 -63 78 -290 292 -351 331
-8 6 -48 32 -88 58 -78 53 -262 147 -306 157 -2 1 -33 12 -67 26 -65 26 -200
63 -253 70 -29 4 -54 8 -105 19 -14 3 -59 7 -100 10 -41 2 -75 5 -75 5 0 2
-127 5 -128 4z m238 -318 c22 -4 53 -9 70 -12 126 -17 315 -82 455 -155 139
-74 240 -150 367 -276 107 -107 112 -114 101 -138 -6 -14 -14 -25 -17 -25 -4
0 -15 -15 -26 -32 -36 -62 -150 -178 -276 -283 -63 -52 -312 -189 -363 -200
-6 -1 -23 -7 -39 -13 -15 -7 -38 -14 -50 -16 -12 -3 -47 -12 -77 -20 -30 -8
-56 -13 -58 -11 -2 2 -15 0 -28 -5 -40 -16 -313 -33 -337 -21 -5 2 -32 5 -60
6 -163 8 -453 106 -591 200 -20 14 -39 25 -43 25 -3 0 -18 10 -33 23 -15 12
-40 31 -56 42 -91 64 -314 312 -314 349 0 22 192 211 270 266 19 13 37 27 40
30 8 10 110 71 176 106 89 46 226 98 324 122 116 28 126 30 200 38 36 3 66 7
67 8 6 5 263 -2 298 -8z"/>
</g>
</svg>
