<svg width="137" height="66" viewBox="0 0 137 66" fill="none" xmlns="http://www.w3.org/2000/svg">
<path d="M115.615 0.300537C115.615 0.300537 78.4966 41.1726 104.161 59.3782C104.161 59.3782 88.8172 47.9056 115.615 15.471C142.418 47.9056 127.078 59.3782 127.078 59.3782C152.739 41.1726 115.615 0.300537 115.615 0.300537Z" fill="#00AEEF"/>
<path d="M104.474 49.5017C104.205 44.1242 106.671 36.3157 115.66 25.2329C124.646 36.3132 127.111 44.1224 126.843 49.5017C126.498 43.6137 121.622 38.9477 115.658 38.9477C109.694 38.9477 104.818 43.6149 104.474 49.5017Z" fill="white"/>
<path d="M115.658 40.7723C109.49 40.7723 104.49 45.8163 104.49 52.0366C104.49 58.2569 109.49 63.3006 115.658 63.3006C121.825 63.3006 126.826 58.2572 126.826 52.0366C126.826 45.816 121.826 40.7723 115.658 40.7723ZM115.658 50.1596C112.612 50.1596 109.932 48.5772 108.381 46.1849C110.086 44.0295 112.713 42.6499 115.658 42.6499C118.603 42.6499 121.229 44.0295 122.935 46.1849C121.384 48.5772 118.704 50.1596 115.658 50.1596Z" fill="white"/>
<path d="M71.1019 46.7706C67.7547 46.7706 65.1225 46.1127 63.2049 44.7983C61.3243 43.4833 60.0083 41.6986 59.256 39.445C58.504 37.153 58.1279 34.5236 58.1279 31.5559V15.2708C58.1279 12.1527 58.5037 9.44791 59.256 7.15637C60.0083 4.86482 61.3243 3.09924 63.2049 1.85941C65.1225 0.619801 67.7547 0 71.1019 0C74.26 0 76.7236 0.544597 78.4901 1.63426C80.296 2.6862 81.5742 4.20776 82.3265 6.19849C83.0784 8.18991 83.4548 10.4999 83.4548 13.1299V16.9614H75.4451V13.017C75.4451 11.7399 75.3699 10.5751 75.2195 9.52382C75.1064 8.47187 74.7492 7.64532 74.1478 7.04437C73.5834 6.40524 72.5869 6.0865 71.158 6.0865C69.7289 6.0865 68.6764 6.42411 67.9991 7.10049C67.3598 7.73962 66.9465 8.62205 66.7586 9.7492C66.5702 10.8384 66.4762 12.0782 66.4762 13.4678V33.3031C66.4762 34.9562 66.6077 36.3271 66.8715 37.4168C67.1346 38.4687 67.6047 39.2757 68.2816 39.8401C68.9957 40.3654 69.9552 40.6283 71.158 40.6283C72.5489 40.6283 73.5271 40.3095 74.0915 39.6711C74.6926 38.9945 75.0689 38.1123 75.2195 37.0226C75.3699 35.9334 75.4451 34.7124 75.4451 33.3597V29.246H83.4548V32.9089C83.4548 35.6137 83.0975 38.0175 82.3831 40.1218C81.6688 42.1878 80.4089 43.8218 78.6035 45.0242C76.8366 46.1879 74.3355 46.7706 71.1019 46.7706Z" fill="white"/>
<path d="M0.443848 46.166V0.49176H26.7859V46.166H18.5506V6.41225H8.67916V46.166H0.443848Z" fill="white"/>
<path d="M33.7729 46.166V0.49176H53.12V6.63786H42.0646V46.166H33.7729Z" fill="white"/>
<path d="M78.0088 63.3006V55.2086H79.2688V60.6546L81.7048 55.2086H82.8808V63.3006H81.6488V57.8126L79.2268 63.3006H78.0088ZM80.4868 54.3266C79.8148 54.3266 79.3388 54.1446 79.0588 53.7806C78.7881 53.4166 78.6528 52.9639 78.6528 52.4226H79.5208C79.5301 52.7586 79.6048 53.0199 79.7448 53.2066C79.8941 53.3839 80.1415 53.4726 80.4868 53.4726C80.8415 53.4726 81.0888 53.3792 81.2288 53.1926C81.3781 53.0059 81.4528 52.7492 81.4528 52.4226H82.3348C82.3348 52.9639 82.1948 53.4166 81.9148 53.7806C81.6441 54.1446 81.1681 54.3266 80.4868 54.3266Z" fill="white"/>
<path d="M74.2874 63.4126C73.6901 63.4126 73.2187 63.2913 72.8734 63.0486C72.5281 62.8059 72.2807 62.4606 72.1314 62.0126C71.9914 61.5646 71.9214 61.0373 71.9214 60.4306V58.0786C71.9214 57.4719 71.9914 56.9446 72.1314 56.4966C72.2807 56.0486 72.5281 55.7033 72.8734 55.4606C73.2187 55.2179 73.6901 55.0966 74.2874 55.0966C74.8847 55.0966 75.3514 55.2179 75.6874 55.4606C76.0327 55.7033 76.2754 56.0486 76.4154 56.4966C76.5647 56.9446 76.6394 57.4719 76.6394 58.0786V60.4306C76.6394 61.0373 76.5647 61.5646 76.4154 62.0126C76.2754 62.4606 76.0327 62.8059 75.6874 63.0486C75.3514 63.2913 74.8847 63.4126 74.2874 63.4126ZM74.2874 62.3066C74.5767 62.3066 74.7774 62.2226 74.8894 62.0546C75.0107 61.8866 75.0807 61.6673 75.0994 61.3966C75.1274 61.1166 75.1414 60.8273 75.1414 60.5286V57.9946C75.1414 57.6866 75.1274 57.3973 75.0994 57.1266C75.0807 56.8559 75.0107 56.6366 74.8894 56.4686C74.7774 56.2913 74.5767 56.2026 74.2874 56.2026C73.9981 56.2026 73.7927 56.2913 73.6714 56.4686C73.5501 56.6366 73.4754 56.8559 73.4474 57.1266C73.4287 57.3973 73.4194 57.6866 73.4194 57.9946V60.5286C73.4194 60.8273 73.4287 61.1166 73.4474 61.3966C73.4754 61.6673 73.5501 61.8866 73.6714 62.0546C73.7927 62.2226 73.9981 62.3066 74.2874 62.3066Z" fill="white"/>
<path d="M65.8135 65.9606V55.2086H67.3115V55.8526C67.4888 55.6473 67.7035 55.4699 67.9555 55.3206C68.2075 55.1713 68.5061 55.0966 68.8515 55.0966C69.2715 55.0966 69.6028 55.2086 69.8455 55.4326C70.0975 55.6473 70.2841 55.9226 70.4055 56.2586C70.5268 56.5853 70.6061 56.9213 70.6435 57.2666C70.6808 57.6026 70.6995 57.8919 70.6995 58.1346V60.0946C70.6995 60.6639 70.6435 61.2053 70.5315 61.7186C70.4195 62.2226 70.2141 62.6333 69.9155 62.9506C69.6261 63.2586 69.2155 63.4126 68.6835 63.4126C68.3941 63.4126 68.1375 63.3426 67.9135 63.2026C67.6895 63.0533 67.4888 62.8853 67.3115 62.6986V65.9606H65.8135ZM68.3895 62.2366C68.6508 62.2366 68.8375 62.1433 68.9495 61.9566C69.0615 61.7606 69.1315 61.4993 69.1595 61.1726C69.1875 60.8459 69.2015 60.4866 69.2015 60.0946V58.1346C69.2015 57.7986 69.1828 57.4906 69.1455 57.2106C69.1081 56.9213 69.0288 56.6926 68.9075 56.5246C68.7861 56.3566 68.5948 56.2726 68.3335 56.2726C68.1375 56.2726 67.9508 56.3146 67.7735 56.3986C67.5962 56.4826 67.4421 56.5806 67.3115 56.6926V61.8726C67.4515 61.9753 67.6101 62.0639 67.7875 62.1386C67.9648 62.2039 68.1655 62.2366 68.3895 62.2366Z" fill="white"/>
<path d="M61.8836 63.3006V56.3286H60.3716V55.2086H64.9076V56.3286H63.3816V63.3006H61.8836Z" fill="white"/>
<path d="M56.7366 63.4266C55.9339 63.4266 55.3086 63.2586 54.8606 62.9226C54.4219 62.5866 54.1139 62.1339 53.9366 61.5646C53.7686 60.9952 53.6846 60.3606 53.6846 59.6606V55.6566C53.6846 54.8912 53.7686 54.2239 53.9366 53.6546C54.1139 53.0852 54.4219 52.6466 54.8606 52.3386C55.3086 52.0212 55.9339 51.8626 56.7366 51.8626C57.4459 51.8626 58.0059 51.9932 58.4166 52.2546C58.8366 52.5159 59.1352 52.8892 59.3126 53.3746C59.4992 53.8599 59.5926 54.4432 59.5926 55.1246V56.0206H58.0946V55.2226C58.0946 54.8026 58.0712 54.4339 58.0246 54.1166C57.9872 53.7899 57.8752 53.5379 57.6886 53.3606C57.5019 53.1832 57.1892 53.0946 56.7506 53.0946C56.3026 53.0946 55.9759 53.1926 55.7706 53.3886C55.5652 53.5752 55.4299 53.8459 55.3646 54.2006C55.3086 54.5459 55.2806 54.9519 55.2806 55.4186V59.9126C55.2806 60.4819 55.3272 60.9346 55.4206 61.2706C55.5139 61.5972 55.6679 61.8306 55.8826 61.9706C56.0972 62.1106 56.3866 62.1806 56.7506 62.1806C57.1799 62.1806 57.4879 62.0872 57.6746 61.9006C57.8612 61.7046 57.9779 61.4386 58.0246 61.1026C58.0712 60.7666 58.0946 60.3746 58.0946 59.9266V59.0866H59.5926V59.9266C59.5926 60.6172 59.5086 61.2286 59.3406 61.7606C59.1726 62.2832 58.8832 62.6939 58.4726 62.9926C58.0619 63.2819 57.4832 63.4266 56.7366 63.4266Z" fill="white"/>
<path d="M47.2232 63.4406C46.8499 63.4406 46.5279 63.3893 46.2572 63.2866C45.9866 63.1839 45.7626 63.0253 45.5852 62.8106C45.4079 62.5866 45.2772 62.3113 45.1932 61.9846C45.1092 61.6579 45.0672 61.2706 45.0672 60.8226H46.3412C46.3412 61.3733 46.4206 61.7699 46.5792 62.0126C46.7379 62.2553 46.9619 62.3766 47.2512 62.3766C47.5032 62.3766 47.6852 62.3113 47.7972 62.1806C47.9092 62.0499 47.9792 61.8726 48.0072 61.6486C48.0352 61.4153 48.0492 61.1586 48.0492 60.8786C48.0492 60.5239 47.9979 60.2626 47.8952 60.0946C47.8019 59.9173 47.6339 59.8006 47.3912 59.7446C47.1579 59.6886 46.8312 59.6606 46.4112 59.6606V58.5966C47.0646 58.5966 47.4986 58.4986 47.7132 58.3026C47.9372 58.1066 48.0492 57.7846 48.0492 57.3366C48.0492 56.9353 47.9652 56.6459 47.7972 56.4686C47.6292 56.2913 47.4192 56.2026 47.1672 56.2026C46.8872 56.2026 46.6632 56.2913 46.4952 56.4686C46.3272 56.6459 46.2432 57.0006 46.2432 57.5326H44.9692C44.9692 56.9259 45.0579 56.4453 45.2352 56.0906C45.4219 55.7359 45.6832 55.4839 46.0192 55.3346C46.3646 55.1759 46.7659 55.0966 47.2232 55.0966C47.7272 55.0966 48.1332 55.1993 48.4412 55.4046C48.7586 55.6099 48.9872 55.8806 49.1272 56.2166C49.2766 56.5433 49.3512 56.8886 49.3512 57.2526C49.3512 57.7193 49.2766 58.0833 49.1272 58.3446C48.9872 58.6059 48.8099 58.7926 48.5952 58.9046C48.3899 59.0166 48.1892 59.0819 47.9932 59.1006C48.1986 59.1379 48.4039 59.2079 48.6092 59.3106C48.8239 59.4039 49.0012 59.5859 49.1412 59.8566C49.2906 60.1179 49.3652 60.5286 49.3652 61.0886C49.3652 61.8539 49.1879 62.4373 48.8332 62.8386C48.4786 63.2399 47.9419 63.4406 47.2232 63.4406Z" fill="white"/>
<path d="M40.8144 63.4126C40.4971 63.4126 40.2171 63.3239 39.9744 63.1466C39.7318 62.9599 39.5404 62.7266 39.4004 62.4466C39.2604 62.1573 39.1904 61.8539 39.1904 61.5366C39.1904 61.0326 39.2744 60.6079 39.4424 60.2626C39.6104 59.9173 39.8391 59.6279 40.1284 59.3946C40.4271 59.1519 40.7678 58.9419 41.1504 58.7646C41.5424 58.5873 41.9531 58.4146 42.3824 58.2466V57.6726C42.3824 57.3459 42.3638 57.0753 42.3264 56.8606C42.2891 56.6459 42.2098 56.4873 42.0884 56.3846C41.9764 56.2726 41.8038 56.2166 41.5704 56.2166C41.3651 56.2166 41.1971 56.2633 41.0664 56.3566C40.9451 56.4499 40.8564 56.5853 40.8004 56.7626C40.7444 56.9306 40.7164 57.1313 40.7164 57.3646V57.7706L39.2324 57.7146C39.2511 56.8186 39.4564 56.1606 39.8484 55.7406C40.2404 55.3113 40.8471 55.0966 41.6684 55.0966C42.4711 55.0966 43.0404 55.3159 43.3764 55.7546C43.7124 56.1933 43.8804 56.8279 43.8804 57.6586V61.3546C43.8804 61.6066 43.8851 61.8493 43.8944 62.0826C43.9131 62.3159 43.9318 62.5353 43.9504 62.7406C43.9784 62.9366 44.0018 63.1233 44.0204 63.3006H42.6484C42.6204 63.1513 42.5831 62.9646 42.5364 62.7406C42.4991 62.5073 42.4711 62.2973 42.4524 62.1106C42.3591 62.4279 42.1771 62.7266 41.9064 63.0066C41.6451 63.2773 41.2811 63.4126 40.8144 63.4126ZM41.4024 62.1246C41.5518 62.1246 41.6918 62.0826 41.8224 61.9986C41.9531 61.9146 42.0698 61.8213 42.1724 61.7186C42.2751 61.6066 42.3451 61.5179 42.3824 61.4526V59.1566C42.1491 59.2873 41.9298 59.4179 41.7244 59.5486C41.5191 59.6793 41.3371 59.8193 41.1784 59.9686C41.0291 60.1086 40.9078 60.2719 40.8144 60.4586C40.7304 60.6359 40.6884 60.8413 40.6884 61.0746C40.6884 61.4013 40.7491 61.6579 40.8704 61.8446C40.9918 62.0313 41.1691 62.1246 41.4024 62.1246Z" fill="white"/>
<path d="M34.084 63.3006V51.9606H38.396V53.1366H35.666V63.3006H34.084Z" fill="white"/>
<path d="M27.0374 63.4126C26.4401 63.4126 25.9687 63.2913 25.6234 63.0486C25.2781 62.8059 25.0307 62.4606 24.8814 62.0126C24.7414 61.5646 24.6714 61.0373 24.6714 60.4306V58.0786C24.6714 57.4719 24.7414 56.9446 24.8814 56.4966C25.0307 56.0486 25.2781 55.7033 25.6234 55.4606C25.9687 55.2179 26.4401 55.0966 27.0374 55.0966C27.6347 55.0966 28.1014 55.2179 28.4374 55.4606C28.7827 55.7033 29.0254 56.0486 29.1654 56.4966C29.3147 56.9446 29.3894 57.4719 29.3894 58.0786V60.4306C29.3894 61.0373 29.3147 61.5646 29.1654 62.0126C29.0254 62.4606 28.7827 62.8059 28.4374 63.0486C28.1014 63.2913 27.6347 63.4126 27.0374 63.4126ZM27.0374 62.3066C27.3267 62.3066 27.5274 62.2226 27.6394 62.0546C27.7607 61.8866 27.8307 61.6673 27.8494 61.3966C27.8774 61.1166 27.8914 60.8273 27.8914 60.5286V57.9946C27.8914 57.6866 27.8774 57.3973 27.8494 57.1266C27.8307 56.8559 27.7607 56.6366 27.6394 56.4686C27.5274 56.2913 27.3267 56.2026 27.0374 56.2026C26.7481 56.2026 26.5427 56.2913 26.4214 56.4686C26.3001 56.6366 26.2254 56.8559 26.1974 57.1266C26.1787 57.3973 26.1694 57.6866 26.1694 57.9946V60.5286C26.1694 60.8273 26.1787 61.1166 26.1974 61.3966C26.2254 61.6673 26.3001 61.8866 26.4214 62.0546C26.5427 62.2226 26.7481 62.3066 27.0374 62.3066Z" fill="white"/>
<path d="M18.5635 65.9606V55.2086H20.0615V55.8526C20.2388 55.6473 20.4535 55.4699 20.7055 55.3206C20.9575 55.1713 21.2561 55.0966 21.6015 55.0966C22.0215 55.0966 22.3528 55.2086 22.5955 55.4326C22.8475 55.6473 23.0341 55.9226 23.1555 56.2586C23.2768 56.5853 23.3561 56.9213 23.3935 57.2666C23.4308 57.6026 23.4495 57.8919 23.4495 58.1346V60.0946C23.4495 60.6639 23.3935 61.2053 23.2815 61.7186C23.1695 62.2226 22.9641 62.6333 22.6655 62.9506C22.3761 63.2586 21.9655 63.4126 21.4335 63.4126C21.1441 63.4126 20.8875 63.3426 20.6635 63.2026C20.4395 63.0533 20.2388 62.8853 20.0615 62.6986V65.9606H18.5635ZM21.1395 62.2366C21.4008 62.2366 21.5875 62.1433 21.6995 61.9566C21.8115 61.7606 21.8815 61.4993 21.9095 61.1726C21.9375 60.8459 21.9515 60.4866 21.9515 60.0946V58.1346C21.9515 57.7986 21.9328 57.4906 21.8955 57.2106C21.8581 56.9213 21.7788 56.6926 21.6575 56.5246C21.5361 56.3566 21.3448 56.2726 21.0835 56.2726C20.8875 56.2726 20.7008 56.3146 20.5235 56.3986C20.3461 56.4826 20.1921 56.5806 20.0615 56.6926V61.8726C20.2015 61.9753 20.3601 62.0639 20.5375 62.1386C20.7148 62.2039 20.9155 62.2366 21.1395 62.2366Z" fill="white"/>
<path d="M14.6336 63.3006V56.3286H13.1216V55.2086H17.6576V56.3286H16.1316V63.3006H14.6336Z" fill="white"/>
<path d="M10.1259 63.4126C9.49127 63.4126 9.00127 63.2913 8.65593 63.0486C8.3106 62.7966 8.06793 62.4326 7.92793 61.9566C7.79727 61.4713 7.73193 60.8786 7.73193 60.1786V58.3306C7.73193 57.6119 7.80193 57.0146 7.94193 56.5386C8.08193 56.0626 8.3246 55.7033 8.66993 55.4606C9.0246 55.2179 9.50993 55.0966 10.1259 55.0966C10.8073 55.0966 11.3066 55.2366 11.6239 55.5166C11.9506 55.7966 12.1653 56.2026 12.2679 56.7346C12.3706 57.2573 12.4219 57.8873 12.4219 58.6246V59.2826H9.22993V60.9066C9.22993 61.2333 9.25793 61.4993 9.31393 61.7046C9.37927 61.9099 9.47727 62.0639 9.60793 62.1666C9.74793 62.2599 9.92527 62.3066 10.1399 62.3066C10.3639 62.3066 10.5319 62.2553 10.6439 62.1526C10.7653 62.0406 10.8446 61.8866 10.8819 61.6906C10.9286 61.4853 10.9519 61.2473 10.9519 60.9766V60.4866H12.4079V60.7946C12.4079 61.6066 12.2353 62.2459 11.8899 62.7126C11.5446 63.1793 10.9566 63.4126 10.1259 63.4126ZM9.22993 58.4706H10.9519V57.7426C10.9519 57.4066 10.9333 57.1266 10.8959 56.9026C10.8586 56.6693 10.7793 56.4966 10.6579 56.3846C10.5459 56.2633 10.3639 56.2026 10.1119 56.2026C9.86927 56.2026 9.6826 56.2586 9.55193 56.3706C9.4306 56.4826 9.3466 56.6739 9.29993 56.9446C9.25327 57.2059 9.22993 57.5699 9.22993 58.0366V58.4706Z" fill="white"/>
<path d="M0 63.3006V51.9606H6.244V63.3006H4.662V53.0946H1.582V63.3006H0Z" fill="white"/>
</svg>
